<mxfile host="app.diagrams.net" modified="2020-12-06T14:29:35.189Z" agent="5.0 (Windows NT 10.0; Win64; x64) AppleWebKit/537.36 (KHTML, like Gecko) Chrome/87.0.4280.67 Safari/537.36 Edg/87.0.664.55" etag="nOX_6-StImYGgf8H6vPq" version="13.10.9" type="github">
  <diagram id="EV23Xd9QwViGW-VsO-eB" name="Page-1">
    <mxGraphModel dx="1240" dy="743" grid="1" gridSize="10" guides="1" tooltips="1" connect="1" arrows="1" fold="1" page="1" pageScale="1" pageWidth="1100" pageHeight="850" math="0" shadow="0">
      <root>
        <mxCell id="0" />
        <mxCell id="1" parent="0" />
        <mxCell id="fa3mV-yQQoPYG1rzh0iE-47" style="edgeStyle=orthogonalEdgeStyle;rounded=0;orthogonalLoop=1;jettySize=auto;html=1;entryX=0;entryY=0.5;entryDx=0;entryDy=0;" edge="1" parent="1" source="fa3mV-yQQoPYG1rzh0iE-1" target="fa3mV-yQQoPYG1rzh0iE-23">
          <mxGeometry relative="1" as="geometry">
            <Array as="points">
              <mxPoint x="270" y="370" />
              <mxPoint x="270" y="330" />
            </Array>
          </mxGeometry>
        </mxCell>
        <mxCell id="fa3mV-yQQoPYG1rzh0iE-48" style="edgeStyle=orthogonalEdgeStyle;rounded=0;orthogonalLoop=1;jettySize=auto;html=1;entryX=0;entryY=0.5;entryDx=0;entryDy=0;" edge="1" parent="1" source="fa3mV-yQQoPYG1rzh0iE-1" target="fa3mV-yQQoPYG1rzh0iE-7">
          <mxGeometry relative="1" as="geometry">
            <Array as="points">
              <mxPoint x="270" y="370" />
              <mxPoint x="270" y="570" />
            </Array>
          </mxGeometry>
        </mxCell>
        <mxCell id="fa3mV-yQQoPYG1rzh0iE-49" style="edgeStyle=orthogonalEdgeStyle;rounded=0;orthogonalLoop=1;jettySize=auto;html=1;entryX=0;entryY=0.5;entryDx=0;entryDy=0;" edge="1" parent="1" source="fa3mV-yQQoPYG1rzh0iE-1" target="fa3mV-yQQoPYG1rzh0iE-24">
          <mxGeometry relative="1" as="geometry">
            <Array as="points">
              <mxPoint x="270" y="370" />
              <mxPoint x="270" y="490" />
            </Array>
          </mxGeometry>
        </mxCell>
        <mxCell id="fa3mV-yQQoPYG1rzh0iE-54" style="edgeStyle=orthogonalEdgeStyle;rounded=0;orthogonalLoop=1;jettySize=auto;html=1;entryX=0;entryY=0.5;entryDx=0;entryDy=0;" edge="1" parent="1" source="fa3mV-yQQoPYG1rzh0iE-1" target="fa3mV-yQQoPYG1rzh0iE-53">
          <mxGeometry relative="1" as="geometry" />
        </mxCell>
        <mxCell id="fa3mV-yQQoPYG1rzh0iE-1" value="User" style="shape=umlActor;verticalLabelPosition=bottom;verticalAlign=top;html=1;" vertex="1" parent="1">
          <mxGeometry x="180" y="340" width="30" height="60" as="geometry" />
        </mxCell>
        <mxCell id="fa3mV-yQQoPYG1rzh0iE-29" style="edgeStyle=orthogonalEdgeStyle;rounded=0;orthogonalLoop=1;jettySize=auto;html=1;exitX=1;exitY=1;exitDx=0;exitDy=0;entryX=0;entryY=0;entryDx=0;entryDy=0;" edge="1" parent="1" source="fa3mV-yQQoPYG1rzh0iE-3" target="fa3mV-yQQoPYG1rzh0iE-23">
          <mxGeometry relative="1" as="geometry" />
        </mxCell>
        <mxCell id="fa3mV-yQQoPYG1rzh0iE-3" value="Upload Video" style="ellipse;whiteSpace=wrap;html=1;" vertex="1" parent="1">
          <mxGeometry x="340" y="220" width="120" height="80" as="geometry" />
        </mxCell>
        <mxCell id="fa3mV-yQQoPYG1rzh0iE-30" style="edgeStyle=orthogonalEdgeStyle;rounded=0;orthogonalLoop=1;jettySize=auto;html=1;exitX=0;exitY=1;exitDx=0;exitDy=0;entryX=1;entryY=0;entryDx=0;entryDy=0;" edge="1" parent="1" source="fa3mV-yQQoPYG1rzh0iE-4" target="fa3mV-yQQoPYG1rzh0iE-23">
          <mxGeometry relative="1" as="geometry" />
        </mxCell>
        <mxCell id="fa3mV-yQQoPYG1rzh0iE-4" value="Watch Video" style="ellipse;whiteSpace=wrap;html=1;" vertex="1" parent="1">
          <mxGeometry x="610" y="220" width="120" height="80" as="geometry" />
        </mxCell>
        <mxCell id="fa3mV-yQQoPYG1rzh0iE-31" style="edgeStyle=orthogonalEdgeStyle;rounded=0;orthogonalLoop=1;jettySize=auto;html=1;exitX=0;exitY=0;exitDx=0;exitDy=0;entryX=1;entryY=0.5;entryDx=0;entryDy=0;" edge="1" parent="1" source="fa3mV-yQQoPYG1rzh0iE-5" target="fa3mV-yQQoPYG1rzh0iE-23">
          <mxGeometry relative="1" as="geometry">
            <Array as="points">
              <mxPoint x="610" y="382" />
              <mxPoint x="610" y="330" />
            </Array>
          </mxGeometry>
        </mxCell>
        <mxCell id="fa3mV-yQQoPYG1rzh0iE-5" value="Comment Video" style="ellipse;whiteSpace=wrap;html=1;" vertex="1" parent="1">
          <mxGeometry x="620" y="370" width="120" height="80" as="geometry" />
        </mxCell>
        <mxCell id="fa3mV-yQQoPYG1rzh0iE-33" style="edgeStyle=orthogonalEdgeStyle;rounded=0;orthogonalLoop=1;jettySize=auto;html=1;exitX=1;exitY=0.5;exitDx=0;exitDy=0;entryX=0;entryY=1;entryDx=0;entryDy=0;" edge="1" parent="1" source="fa3mV-yQQoPYG1rzh0iE-6" target="fa3mV-yQQoPYG1rzh0iE-23">
          <mxGeometry relative="1" as="geometry" />
        </mxCell>
        <mxCell id="fa3mV-yQQoPYG1rzh0iE-6" value="Like or Dislike Video" style="ellipse;whiteSpace=wrap;html=1;" vertex="1" parent="1">
          <mxGeometry x="330" y="350" width="120" height="80" as="geometry" />
        </mxCell>
        <mxCell id="fa3mV-yQQoPYG1rzh0iE-7" value="Manage Channel" style="ellipse;whiteSpace=wrap;html=1;" vertex="1" parent="1">
          <mxGeometry x="460" y="530" width="120" height="80" as="geometry" />
        </mxCell>
        <mxCell id="fa3mV-yQQoPYG1rzh0iE-32" style="edgeStyle=orthogonalEdgeStyle;rounded=0;orthogonalLoop=1;jettySize=auto;html=1;exitX=0.5;exitY=0;exitDx=0;exitDy=0;entryX=0.5;entryY=1;entryDx=0;entryDy=0;" edge="1" parent="1" source="fa3mV-yQQoPYG1rzh0iE-8" target="fa3mV-yQQoPYG1rzh0iE-23">
          <mxGeometry relative="1" as="geometry" />
        </mxCell>
        <mxCell id="fa3mV-yQQoPYG1rzh0iE-42" style="edgeStyle=orthogonalEdgeStyle;rounded=0;orthogonalLoop=1;jettySize=auto;html=1;exitX=0;exitY=1;exitDx=0;exitDy=0;entryX=1;entryY=0.5;entryDx=0;entryDy=0;" edge="1" parent="1" source="fa3mV-yQQoPYG1rzh0iE-8" target="fa3mV-yQQoPYG1rzh0iE-24">
          <mxGeometry relative="1" as="geometry" />
        </mxCell>
        <mxCell id="fa3mV-yQQoPYG1rzh0iE-8" value="Save Video to Playlist" style="ellipse;whiteSpace=wrap;html=1;" vertex="1" parent="1">
          <mxGeometry x="480" y="400" width="120" height="80" as="geometry" />
        </mxCell>
        <mxCell id="fa3mV-yQQoPYG1rzh0iE-28" style="edgeStyle=orthogonalEdgeStyle;rounded=0;orthogonalLoop=1;jettySize=auto;html=1;exitX=0.5;exitY=1;exitDx=0;exitDy=0;entryX=0.5;entryY=0;entryDx=0;entryDy=0;" edge="1" parent="1" source="fa3mV-yQQoPYG1rzh0iE-17" target="fa3mV-yQQoPYG1rzh0iE-23">
          <mxGeometry relative="1" as="geometry" />
        </mxCell>
        <mxCell id="fa3mV-yQQoPYG1rzh0iE-17" value="List / Search Video" style="ellipse;whiteSpace=wrap;html=1;" vertex="1" parent="1">
          <mxGeometry x="470" y="160" width="120" height="80" as="geometry" />
        </mxCell>
        <mxCell id="fa3mV-yQQoPYG1rzh0iE-41" style="edgeStyle=orthogonalEdgeStyle;rounded=0;orthogonalLoop=1;jettySize=auto;html=1;exitX=0;exitY=0.5;exitDx=0;exitDy=0;entryX=1;entryY=1;entryDx=0;entryDy=0;" edge="1" parent="1" source="fa3mV-yQQoPYG1rzh0iE-20" target="fa3mV-yQQoPYG1rzh0iE-7">
          <mxGeometry relative="1" as="geometry">
            <Array as="points">
              <mxPoint x="638" y="600" />
              <mxPoint x="638" y="598" />
            </Array>
          </mxGeometry>
        </mxCell>
        <mxCell id="fa3mV-yQQoPYG1rzh0iE-20" value="Subscribe&amp;nbsp;Channel" style="ellipse;whiteSpace=wrap;html=1;" vertex="1" parent="1">
          <mxGeometry x="620" y="570" width="120" height="80" as="geometry" />
        </mxCell>
        <mxCell id="fa3mV-yQQoPYG1rzh0iE-23" value="Manage Video" style="ellipse;whiteSpace=wrap;html=1;" vertex="1" parent="1">
          <mxGeometry x="470" y="290" width="120" height="80" as="geometry" />
        </mxCell>
        <mxCell id="fa3mV-yQQoPYG1rzh0iE-43" style="edgeStyle=orthogonalEdgeStyle;rounded=0;orthogonalLoop=1;jettySize=auto;html=1;entryX=0;entryY=0;entryDx=0;entryDy=0;" edge="1" parent="1" source="fa3mV-yQQoPYG1rzh0iE-24" target="fa3mV-yQQoPYG1rzh0iE-7">
          <mxGeometry relative="1" as="geometry">
            <Array as="points">
              <mxPoint x="400" y="542" />
            </Array>
          </mxGeometry>
        </mxCell>
        <mxCell id="fa3mV-yQQoPYG1rzh0iE-24" value="Manage Playlist" style="ellipse;whiteSpace=wrap;html=1;" vertex="1" parent="1">
          <mxGeometry x="340" y="450" width="120" height="80" as="geometry" />
        </mxCell>
        <mxCell id="fa3mV-yQQoPYG1rzh0iE-40" style="edgeStyle=orthogonalEdgeStyle;rounded=0;orthogonalLoop=1;jettySize=auto;html=1;exitX=0;exitY=1;exitDx=0;exitDy=0;entryX=1;entryY=0;entryDx=0;entryDy=0;" edge="1" parent="1" source="fa3mV-yQQoPYG1rzh0iE-25" target="fa3mV-yQQoPYG1rzh0iE-7">
          <mxGeometry relative="1" as="geometry" />
        </mxCell>
        <mxCell id="fa3mV-yQQoPYG1rzh0iE-25" value="Create Channel" style="ellipse;whiteSpace=wrap;html=1;" vertex="1" parent="1">
          <mxGeometry x="630" y="460" width="120" height="80" as="geometry" />
        </mxCell>
        <mxCell id="fa3mV-yQQoPYG1rzh0iE-44" value="Manage User" style="ellipse;whiteSpace=wrap;html=1;" vertex="1" parent="1">
          <mxGeometry x="460" y="660" width="120" height="80" as="geometry" />
        </mxCell>
        <mxCell id="fa3mV-yQQoPYG1rzh0iE-45" value="Manage Category" style="ellipse;whiteSpace=wrap;html=1;" vertex="1" parent="1">
          <mxGeometry x="580" y="740" width="120" height="80" as="geometry" />
        </mxCell>
        <mxCell id="fa3mV-yQQoPYG1rzh0iE-51" style="edgeStyle=orthogonalEdgeStyle;rounded=0;orthogonalLoop=1;jettySize=auto;html=1;entryX=1;entryY=0.5;entryDx=0;entryDy=0;" edge="1" parent="1" source="fa3mV-yQQoPYG1rzh0iE-46" target="fa3mV-yQQoPYG1rzh0iE-44">
          <mxGeometry relative="1" as="geometry">
            <Array as="points">
              <mxPoint x="610" y="690" />
              <mxPoint x="610" y="700" />
            </Array>
          </mxGeometry>
        </mxCell>
        <mxCell id="fa3mV-yQQoPYG1rzh0iE-52" style="edgeStyle=orthogonalEdgeStyle;rounded=0;orthogonalLoop=1;jettySize=auto;html=1;entryX=1;entryY=0.5;entryDx=0;entryDy=0;" edge="1" parent="1" source="fa3mV-yQQoPYG1rzh0iE-46" target="fa3mV-yQQoPYG1rzh0iE-45">
          <mxGeometry relative="1" as="geometry" />
        </mxCell>
        <mxCell id="fa3mV-yQQoPYG1rzh0iE-56" style="edgeStyle=orthogonalEdgeStyle;rounded=0;orthogonalLoop=1;jettySize=auto;html=1;entryX=0.5;entryY=1;entryDx=0;entryDy=0;" edge="1" parent="1" source="fa3mV-yQQoPYG1rzh0iE-46" target="fa3mV-yQQoPYG1rzh0iE-7">
          <mxGeometry relative="1" as="geometry">
            <Array as="points">
              <mxPoint x="610" y="690" />
              <mxPoint x="610" y="640" />
              <mxPoint x="520" y="640" />
            </Array>
          </mxGeometry>
        </mxCell>
        <mxCell id="fa3mV-yQQoPYG1rzh0iE-57" style="edgeStyle=orthogonalEdgeStyle;rounded=0;orthogonalLoop=1;jettySize=auto;html=1;entryX=1;entryY=0.5;entryDx=0;entryDy=0;" edge="1" parent="1" source="fa3mV-yQQoPYG1rzh0iE-46" target="fa3mV-yQQoPYG1rzh0iE-23">
          <mxGeometry relative="1" as="geometry">
            <Array as="points">
              <mxPoint x="770" y="690" />
              <mxPoint x="770" y="330" />
            </Array>
          </mxGeometry>
        </mxCell>
        <mxCell id="fa3mV-yQQoPYG1rzh0iE-46" value="Admin" style="shape=umlActor;verticalLabelPosition=bottom;verticalAlign=top;html=1;" vertex="1" parent="1">
          <mxGeometry x="840" y="660" width="30" height="60" as="geometry" />
        </mxCell>
        <mxCell id="fa3mV-yQQoPYG1rzh0iE-55" style="edgeStyle=orthogonalEdgeStyle;rounded=0;orthogonalLoop=1;jettySize=auto;html=1;entryX=0;entryY=0.5;entryDx=0;entryDy=0;exitX=0.5;exitY=1;exitDx=0;exitDy=0;" edge="1" parent="1" source="fa3mV-yQQoPYG1rzh0iE-53" target="fa3mV-yQQoPYG1rzh0iE-44">
          <mxGeometry relative="1" as="geometry" />
        </mxCell>
        <mxCell id="fa3mV-yQQoPYG1rzh0iE-53" value="Update Profile" style="ellipse;whiteSpace=wrap;html=1;" vertex="1" parent="1">
          <mxGeometry x="330" y="600" width="120" height="80" as="geometry" />
        </mxCell>
      </root>
    </mxGraphModel>
  </diagram>
</mxfile>
